<svg width="77" height="79" viewBox="0 0 77 79" fill="none" xmlns="http://www.w3.org/2000/svg">
<path fill-rule="evenodd" clip-rule="evenodd" d="M46.917 17.7017C47.801 23.2681 46.3914 28.6672 43.4052 32.9674C42.6757 32.3338 41.9119 31.7409 41.1175 31.1916C36.8322 28.2283 31.659 26.5318 26.207 26.5328C24.8512 26.5323 23.4776 26.6364 22.0954 26.8516C17.0546 27.6638 12.5872 29.8378 9.00367 32.9674C7.23581 30.4351 6.01743 27.4966 5.49185 24.2476C3.7001 12.8043 11.4882 2.0777 22.9315 0.262065C34.3748 -1.55357 45.1014 6.25844 46.917 17.7017Z" fill="white"/>
<path fill-rule="evenodd" clip-rule="evenodd" d="M41.8458 73.7955C38.3148 70.693 35.8042 66.3637 35.0198 61.3485C33.4431 51.4103 39.1528 41.9738 48.1832 38.5098C49.7575 40.9288 50.9615 43.6256 51.6836 46.5506C50.3661 41.1102 47.3946 36.4262 43.4052 32.9673C40.2517 37.4825 35.3543 40.7554 29.5012 41.6871C21.307 42.9772 13.4711 39.3459 9.02755 32.9673C2.43392 38.7009 -1.14957 47.5879 0.331609 56.8572C2.60115 71.1434 16.0273 80.9144 30.3135 78.6449C34.6418 77.9573 38.5557 76.2456 41.8458 73.7955Z" fill="white"/>
<path fill-rule="evenodd" clip-rule="evenodd" d="M76.445 54.7552C78.2367 66.1984 70.4486 76.925 59.0053 78.7407C52.6172 79.7409 46.4525 77.7557 41.9366 73.8159C49.463 68.1745 53.6992 58.6809 52.125 48.7349C51.5277 44.9603 50.1421 41.5201 48.1832 38.51C40.9814 41.2726 35.8916 47.8337 34.9254 55.4185C36.057 46.3791 43.0127 38.7946 52.4595 37.3155C63.9027 35.5237 74.6293 43.3119 76.445 54.7552Z" fill="white"/>
</svg>
