<svg width="22" height="14" viewBox="0 0 22 14" fill="none" xmlns="http://www.w3.org/2000/svg">
<path d="M21.0585 2.19032C20.8199 1.33226 20.104 0.654839 19.1972 0.417742C17.5625 8.9407e-08 11 0 11 0C11 0 4.4375 8.9407e-08 2.79091 0.417742C1.88409 0.654839 1.18011 1.32097 0.929545 2.19032C0.5 3.74839 0.5 7 0.5 7C0.5 7 0.5 10.2516 0.941477 11.8097C1.18011 12.6677 1.89602 13.3452 2.80284 13.5823C4.4375 14 11 14 11 14C11 14 17.5625 14 19.2091 13.5823C20.1159 13.3452 20.8199 12.679 21.0705 11.8097C21.5 10.2516 21.5 7 21.5 7C21.5 7 21.5 3.74839 21.0585 2.19032ZM8.85227 9.95806V4.04194L14.3409 7L8.85227 9.95806Z" fill="#221F20"/>
</svg>
