<svg width="213" height="264" viewBox="0 0 213 264" fill="none" xmlns="http://www.w3.org/2000/svg">
<path d="M38.2055 205.044C38.2055 213.517 45.2059 220.459 53.7488 220.459C62.2917 220.459 69.2921 213.517 69.2921 205.044V190.217H38.2055V205.044Z" fill="#FF4263"/>
<path d="M53.7495 114.786C45.2066 114.786 38.2062 121.728 38.2062 130.201V190.216H69.2928V130.201C69.2928 121.728 62.2924 114.786 53.7495 114.786Z" fill="white"/>
<path d="M53.7495 114.786C45.2066 114.786 38.2062 121.728 38.2062 130.201V190.216H69.2928V130.201C69.2928 121.728 62.2924 114.786 53.7495 114.786Z" fill="white"/>
<path d="M53.7488 264C62.3331 264 69.2921 257.098 69.2921 248.584C69.2921 240.07 62.3331 233.168 53.7488 233.168C45.1645 233.168 38.2055 240.07 38.2055 248.584C38.2055 257.098 45.1645 264 53.7488 264Z" fill="#4C1BD4"/>
<path d="M157.212 79.3609C156.856 79.3609 156.619 79.3609 156.263 79.3609C156.5 76.772 156.737 74.1831 156.737 71.5943C156.737 32.5257 124.701 0.753174 85.3093 0.753174C54.46 0.753174 28.2381 20.1697 18.1527 47.353C18.1527 47.4706 18.0341 47.4706 18.0341 47.4706C10.6777 44.411 2.60945 42.7636 -5.81477 42.7636C-39.8676 42.8813 -67.5134 69.7114 -68.2253 103.249C-69.1745 103.131 -70.1237 103.131 -71.0729 103.131C-95.515 103.131 -115.33 123.019 -114.974 147.378C-114.618 171.384 -93.7352 190.212 -69.5304 190.212H-16.612V165.5C-16.612 157.027 -9.61161 150.084 -1.06873 150.084C7.47415 150.084 14.4746 157.027 14.4746 165.5V190.212H38.3234V134.316C38.3234 125.843 45.3239 118.9 53.8667 118.9C62.4096 118.9 69.41 125.843 69.41 134.316V190.212H93.2589V165.5C93.2589 157.027 100.259 150.084 108.802 150.084C117.345 150.084 124.345 157.027 124.345 165.5V190.212H157.212C188.061 190.212 212.978 165.382 212.978 134.904C212.978 104.191 187.942 79.3609 157.212 79.3609Z" fill="#FFDB00"/>
<path d="M93.1387 248.584C93.1387 257.057 100.139 264 108.682 264C117.225 264 124.225 257.057 124.225 248.584V190.217H93.1387V248.584Z" fill="#FF4263"/>
<path d="M108.682 149.972C100.139 149.972 93.1387 156.915 93.1387 165.387V190.099H124.225V165.387C124.225 156.915 117.225 149.972 108.682 149.972Z" fill="white"/>
<path d="M108.682 149.972C100.139 149.972 93.1387 156.915 93.1387 165.387V190.099H124.225V165.387C124.225 156.915 117.225 149.972 108.682 149.972Z" fill="white"/>
<path d="M108.682 137.263C117.266 137.263 124.225 130.361 124.225 121.847C124.225 113.333 117.266 106.432 108.682 106.432C100.098 106.432 93.1387 113.333 93.1387 121.847C93.1387 130.361 100.098 137.263 108.682 137.263Z" fill="#4C1BD4"/>
<path d="M-16.6137 248.584C-16.6137 257.057 -9.61329 264 -1.07041 264C7.47247 264 14.4729 257.057 14.4729 248.584V190.217H-16.6137V248.584Z" fill="#FF4263"/>
<path d="M-1.18919 149.972C-9.73207 149.972 -16.7325 156.915 -16.7325 165.388V190.1H14.3541V165.388C14.3541 156.915 7.35369 149.972 -1.18919 149.972Z" fill="white"/>
<path d="M-1.18919 149.972C-9.73207 149.972 -16.7325 156.915 -16.7325 165.388V190.1H14.3541V165.388C14.3541 156.915 7.35369 149.972 -1.18919 149.972Z" fill="white"/>
<path d="M-1.18888 137.263C7.39544 137.263 14.3544 130.361 14.3544 121.847C14.3544 113.333 7.39544 106.432 -1.18888 106.432C-9.77321 106.432 -16.7322 113.333 -16.7322 121.847C-16.7322 130.361 -9.77321 137.263 -1.18888 137.263Z" fill="#4C1BD4"/>
<path d="M53.6291 103.49C62.2134 103.49 69.1723 96.5883 69.1723 88.0745C69.1723 79.5607 62.2134 72.6589 53.6291 72.6589C45.0447 72.6589 38.0858 79.5607 38.0858 88.0745C38.0858 96.5883 45.0447 103.49 53.6291 103.49Z" fill="#4C1BD4"/>
</svg>
