<svg width="380" height="256" viewBox="0 0 380 256" fill="none" xmlns="http://www.w3.org/2000/svg">
<g clip-path="url(#clip0)">
<path d="M141.986 177.96C136.847 180.75 131.414 182.218 125.835 182.218C112.179 182.218 103.223 174.289 99.9923 170.765C95.7342 166.213 90.1546 165.332 85.7496 168.416C83.4003 170.031 81.7852 172.38 81.3447 175.17C80.7573 177.96 81.3447 180.75 82.9598 183.099C91.3292 195.58 107.774 203.362 125.981 203.362C136.406 203.362 146.244 200.719 154.32 196.167C153.145 194.699 151.971 193.23 150.796 191.615C147.419 187.357 144.629 182.658 141.986 177.96Z" fill="#FF4263"/>
<path d="M95.7341 142.574C104.985 142.574 112.473 135.085 112.473 125.835C112.473 116.584 104.985 109.096 95.7341 109.096C86.4838 109.096 78.9954 116.584 78.9954 125.835C78.9954 135.085 86.4838 142.574 95.7341 142.574Z" fill="#4C1BD4"/>
<path d="M152.117 109.096C142.867 109.096 135.379 116.584 135.379 125.835C135.379 135.085 142.867 142.574 152.117 142.574C161.368 142.574 168.856 135.085 168.856 125.835C168.856 116.584 161.368 109.096 152.117 109.096Z" fill="#4C1BD4"/>
<path d="M166.213 32.0093C153.879 27.017 140.665 24.374 126.862 24.374C78.5549 24.374 35.8269 57.8516 24.0804 104.544C23.9335 105.278 23.3462 105.719 22.6121 105.866C9.98454 107.04 0 117.906 0 131.121V161.662C0 176.638 12.187 188.825 27.1638 188.825H27.6043C28.3385 188.825 28.9258 189.266 29.2195 189.853C44.7836 229.204 83.1066 255.487 125.688 255.487H131.855C140.371 255.487 147.272 248.586 147.272 240.07V238.895C147.272 238.454 147.272 237.867 147.125 237.427C147.125 237.133 147.125 236.986 147.125 236.692V235.518V234.93C147.125 226.561 140.371 219.954 132.148 219.954H114.969C110.564 219.954 106.6 222.156 104.104 225.533C103.663 226.121 102.929 226.267 102.195 226.121C70.626 216.136 47.7202 186.77 47.7202 151.971C47.7202 151.383 47.7202 150.649 47.5734 150.062V122.898V122.751C51.391 82.3725 86.1901 50.6569 126.862 50.6569C134.057 50.6569 141.105 51.6847 147.713 53.4467C152.998 45.6646 159.165 38.4699 166.213 32.0093Z" fill="#FF4263"/>
<path d="M206.445 130.24C206.445 130.68 206.445 131.267 206.592 131.708V171.059C206.592 180.896 214.521 188.825 224.359 188.825H227.002C241.979 188.825 254.166 176.638 254.166 161.662V131.121C254.166 117.906 244.034 106.893 230.966 105.719C230.232 105.719 229.645 105.131 229.498 104.397C221.128 71.0665 196.901 44.49 166.067 32.0093C159.019 38.4699 152.852 45.6646 147.713 53.4467C181.631 62.6971 206.445 93.5317 206.445 130.24Z" fill="white"/>
<path d="M376.476 206.005L372.365 199.104C372.071 198.516 371.777 197.929 371.484 197.342C366.051 185.008 362.38 175.023 362.821 164.011C363.114 157.55 366.492 144.042 366.492 142.28C366.492 142.133 366.492 141.986 366.492 141.839C372.071 110.564 365.464 76.9397 345.054 49.3353C305.85 -4.40499 230.379 -16.0047 176.638 23.3462C172.968 25.9891 169.444 28.9258 166.213 32.0092C197.048 44.4899 221.275 71.0664 229.645 104.397C229.791 105.131 230.379 105.572 231.113 105.719C244.034 106.893 254.312 117.906 254.312 131.121V161.661C254.312 176.638 242.125 188.825 227.148 188.825H224.505C214.668 188.825 206.739 180.896 206.739 171.059V131.708C206.739 131.267 206.592 130.68 206.592 130.24C206.592 93.5316 181.631 62.697 147.859 53.4466C123.339 90.0077 120.402 138.168 141.986 177.96C145.363 176.051 148.594 173.702 151.824 170.765C154.907 167.828 159.753 164.304 165.92 168.416C170.765 171.646 172.087 178.253 168.856 183.099C165.332 188.385 160.193 192.937 154.32 196.314C191.175 241.978 255.487 254.019 306.144 226.121L306.731 225.827C311.577 223.331 317.009 222.303 322.295 222.743C329.49 223.331 336.097 225.093 340.649 226.121C340.649 226.121 360.031 230.966 360.325 230.966C376.77 235.518 385.139 218.192 376.476 206.005ZM152.117 142.573C142.867 142.573 135.379 135.085 135.379 125.835C135.379 116.584 142.867 109.096 152.117 109.096C161.368 109.096 168.856 116.584 168.856 125.835C168.856 135.085 161.368 142.573 152.117 142.573Z" fill="#FFDB00"/>
</g>
<defs>
<clipPath id="clip0">
<rect width="380" height="255.487" fill="white"/>
</clipPath>
</defs>
</svg>
