<svg width="40" height="40" viewBox="0 0 40 40" fill="none" xmlns="http://www.w3.org/2000/svg">
<path d="M39.5 19.9973C39.5 30.7653 30.7696 39.4946 20 39.4946C9.23038 39.4946 0.5 30.7653 0.5 19.9973C0.5 9.22931 9.23038 0.5 20 0.5C30.7696 0.5 39.5 9.22931 39.5 19.9973Z" stroke="white" stroke-opacity="0.12"/>
<path d="M30 20.0594C30 14.5032 25.5234 10 20 10C14.4766 10 10 14.5032 10 20.0594C10 25.0813 13.6562 29.2426 18.4375 29.9971V22.9672H15.8984V20.0594H18.4375V17.8432C18.4375 15.3225 19.9297 13.9295 22.2148 13.9295C23.3086 13.9295 24.4531 14.1259 24.4531 14.1259V16.6015H23.1914C21.9492 16.6015 21.5625 17.3776 21.5625 18.1733V20.0594H24.3359L23.8926 22.9672H21.5625V29.9971C26.3438 29.2426 30 25.0813 30 20.0594Z" fill="white"/>
</svg>
