<svg width="15" height="15" viewBox="0 0 15 15" fill="none" xmlns="http://www.w3.org/2000/svg">
<g clip-path="url(#clip0)">
<path d="M0.279998 4.98041H3.811V15.0008H0.279998V4.98041ZM2.04647 -0.000731766C2.45104 -0.000590554 2.84647 0.105456 3.18278 0.303999C3.51908 0.502541 3.78115 0.784665 3.93586 1.1147C4.09056 1.44473 4.13095 1.80785 4.05191 2.15815C3.97287 2.50844 3.77796 2.83018 3.49183 3.08268C3.20569 3.33519 2.84117 3.50712 2.44436 3.57673C2.04755 3.64634 1.63628 3.61052 1.26253 3.47378C0.888785 3.33704 0.569354 3.10554 0.344627 2.80853C0.119901 2.51153 -2.95483e-05 2.16236 5.46075e-09 1.80518C5.31785e-05 1.56797 0.0530301 1.33309 0.155906 1.11395C0.258781 0.894813 0.40954 0.695711 0.599574 0.528014C0.789609 0.360318 1.0152 0.227311 1.26346 0.136588C1.51172 0.0458651 1.77779 -0.000796456 2.04647 -0.000732356" fill="#202020"/>
<path d="M5.45312 4.35475H8.38796V5.81014H8.42993C8.83814 4.9732 9.83714 4.09058 11.3267 4.09058C14.4267 4.09058 14.9996 6.29492 14.9996 9.16215V15.0008H11.9382V9.82361C11.9382 8.58907 11.9186 7.00081 10.3473 7.00081C8.75419 7.00081 8.51112 8.3464 8.51112 9.73524V15.0008H5.45312V4.35475Z" fill="#202020"/>
</g>
<defs>
<clipPath id="clip0">
<rect width="15" height="15" fill="white"/>
</clipPath>
</defs>
</svg>
