<svg width="40" height="40" viewBox="0 0 40 40" fill="none" xmlns="http://www.w3.org/2000/svg">
<path d="M13.28 16.9777H16.811V26.9971H13.28V16.9777ZM15.0465 11.9971C15.451 11.9972 15.8465 12.1032 16.1828 12.3018C16.5191 12.5003 16.7811 12.7824 16.9358 13.1124C17.0905 13.4424 17.1309 13.8055 17.0519 14.1557C16.9729 14.506 16.7779 14.8277 16.4918 15.0802C16.2057 15.3327 15.8412 15.5046 15.4444 15.5742C15.0475 15.6438 14.6363 15.608 14.2625 15.4712C13.8888 15.3345 13.5694 15.103 13.3446 14.806C13.1199 14.5091 13 14.1599 13 13.8028C13.0001 13.5656 13.053 13.3308 13.1559 13.1116C13.2588 12.8925 13.4095 12.6934 13.5996 12.5258C13.7896 12.3581 14.0152 12.2251 14.2635 12.1344C14.5117 12.0437 14.7778 11.997 15.0465 11.9971" fill="white"/>
<path d="M18.4531 16.354H21.3879V17.8093H21.4299C21.8381 16.9724 22.8371 16.0898 24.3267 16.0898C27.4266 16.0898 27.9995 18.294 27.9995 21.1609V26.999H24.9381V21.8223C24.9381 20.5879 24.9185 18.9998 23.3473 18.9998C21.7542 18.9998 21.5111 20.3453 21.5111 21.734V26.999H18.4531V16.354Z" fill="white"/>
<path d="M39.5 19.9973C39.5 30.7653 30.7696 39.4946 20 39.4946C9.23038 39.4946 0.5 30.7653 0.5 19.9973C0.5 9.22931 9.23038 0.5 20 0.5C30.7696 0.5 39.5 9.22931 39.5 19.9973Z" stroke="white" stroke-opacity="0.12"/>
</svg>
