<svg width="138" height="76" viewBox="0 0 138 76" fill="none" xmlns="http://www.w3.org/2000/svg">
<path d="M40.8502 31.365C43.6815 27.277 45.0151 22.1361 44.1739 16.83C42.471 5.9495 32.2947 -1.48313 21.4824 0.251149C10.67 1.96478 3.28398 12.1847 5.00739 23.0652C5.49979 26.1621 6.66925 28.97 8.33111 31.365C11.7164 28.3919 15.9428 26.3067 20.7232 25.5427C28.2324 24.3453 35.5159 26.6989 40.8502 31.365Z" fill="#221F20"/>
<path d="M49.2852 46.2727C48.3415 40.2441 45.305 35.0619 41.058 31.3455C38.0831 35.64 33.4463 38.7575 27.9067 39.6453C20.1514 40.8841 12.7448 37.4155 8.53888 31.3662C2.30178 36.8168 -1.08349 45.2817 0.311648 54.077C2.44539 67.6828 15.1453 76.9736 28.6659 74.8058C42.1864 72.6586 51.419 59.8786 49.2852 46.2727Z" fill="#221F20"/>
<path d="M39.6424 70.2636C46.7822 64.8956 50.8035 55.8319 49.3263 46.3759C48.7519 42.7835 47.4388 39.5008 45.5923 36.6516C37.0368 39.955 31.6409 48.9154 33.1386 58.392C33.8772 63.1819 36.2777 67.2905 39.6424 70.2636Z" fill="#FFDB00"/>
<path fill-rule="evenodd" clip-rule="evenodd" d="M72.0765 52.0729C73.7999 62.9534 66.4139 73.1733 55.6015 74.9076C44.7892 76.6418 34.6334 69.2092 32.91 58.3287C31.1866 47.4481 38.5726 37.2076 49.3849 35.494C60.1973 33.7597 70.3531 41.1923 72.0765 52.0729ZM49.3262 46.376C50.8034 55.8319 46.7822 64.8956 39.6423 70.2636C36.2776 67.2906 33.8771 63.182 33.1385 58.392C31.6408 48.9154 37.0367 39.955 45.5922 36.6516C47.4387 39.5008 48.7518 42.7835 49.3262 46.376Z" fill="#221F20"/>
<path d="M118.304 53.231H122.592V43.8783C123.105 43.2796 124.254 42.3505 125.669 42.3505C127.003 42.3505 128.07 43.135 128.07 45.1377V53.2517H132.337V44.6835C132.337 40.6781 130.019 38.5103 126.88 38.5103C124.828 38.5103 123.413 39.4394 122.592 40.162V38.7993H118.304V53.231ZM109.092 42.0614C110.918 42.0614 112.169 43.0524 112.477 44.6422H105.666C105.973 43.0524 107.225 42.0614 109.092 42.0614ZM109.543 53.5201C112.846 53.5201 115.001 51.951 115.657 51.2283L113.38 48.3998C112.928 48.8334 111.718 49.9689 109.461 49.9689C107.409 49.9689 105.994 49.0398 105.666 47.3882H116.519C116.58 46.9339 116.58 46.4797 116.58 46.0255C116.58 41.6898 113.462 38.5103 109.174 38.5103C104.783 38.5103 101.603 41.6898 101.603 46.0255C101.562 50.3406 104.64 53.5201 109.543 53.5201ZM81.0659 43.8783C81.4968 43.2796 82.5226 42.3505 83.8562 42.3505C85.1898 42.3505 86.1746 43.135 86.1746 45.0964V53.231H90.4626V43.8783C90.8935 43.2796 91.9193 42.3505 93.2529 42.3505C94.607 42.3505 95.5713 43.135 95.5713 45.0964V53.231H99.8593V44.6422C99.8593 40.6781 97.5409 38.4896 94.4019 38.4896C91.9809 38.4896 90.4216 39.6252 89.4163 40.6781C88.452 39.2535 86.8722 38.4896 85.0462 38.4896C83.0766 38.4896 81.784 39.4187 81.107 40.1413V38.7787H76.819V53.231H81.107V43.8783H81.0659Z" fill="#221F20"/>
<path d="M130.511 61.6129C132.337 61.6129 133.589 62.6039 133.897 64.1937H127.085C127.393 62.6246 128.644 61.6129 130.511 61.6129ZM130.963 73.0715C134.266 73.0715 136.42 71.5024 137.077 70.7798L134.799 67.9513C134.348 68.3849 133.138 69.5204 130.881 69.5204C128.829 69.5204 127.413 68.5913 127.085 66.9396H137.938C138 66.4854 138 66.0312 138 65.577C138 61.2413 134.881 58.0617 130.593 58.0617C126.203 58.0617 123.023 61.2413 123.023 65.577C122.982 69.9127 126.059 73.0715 130.963 73.0715ZM116.211 73.0715C119.966 73.0715 121.812 71.1721 122.387 70.4701L119.72 67.5796C119.268 68.0339 118.16 69.1694 116.273 69.1694C114.077 69.1694 112.662 67.8068 112.662 65.577C112.662 63.3265 114.077 61.9845 116.232 61.9845C118.099 61.9845 119.33 63.2852 119.679 63.5743L122.161 60.6012C121.607 59.9406 119.535 58.0824 116.211 58.0824C111.636 58.0824 108.374 61.2619 108.374 65.5976C108.374 69.9127 111.554 73.0715 116.211 73.0715ZM102.116 72.8031H106.404V58.3508H102.116V72.8031ZM81.0659 63.4298C81.4968 62.831 82.5226 61.9019 83.8562 61.9019C85.1898 61.9019 86.1746 62.6865 86.1746 64.6479V72.7825H90.4626V63.4298C90.8935 62.831 91.9193 61.9019 93.2529 61.9019C94.607 61.9019 95.5713 62.6865 95.5713 64.6479V72.7825H99.8593V64.1937C99.8593 60.2296 97.5409 58.0411 94.4018 58.0411C91.9809 58.0411 90.4216 59.1766 89.4163 60.2296C88.452 58.805 86.8722 58.0411 85.0462 58.0411C83.0766 58.0411 81.784 58.9702 81.107 59.6928V58.3302H76.819V72.7825H81.107V63.4298H81.0659Z" fill="#221F20"/>
</svg>
