<svg width="138" height="76" viewBox="0 0 138 76" fill="none" xmlns="http://www.w3.org/2000/svg">
<path d="M40.8502 31.365C43.6815 27.277 45.0151 22.1361 44.1739 16.83C42.471 5.9495 32.2947 -1.48313 21.4823 0.251149C10.67 1.96478 3.28392 12.1847 5.00733 23.0652C5.49973 26.1621 6.66919 28.97 8.33105 31.365C11.7163 28.3919 15.9428 26.3067 20.7232 25.5427C28.2323 24.3453 35.5158 26.6989 40.8502 31.365Z" fill="#FFDB00"/>
<path d="M49.2852 46.2727C48.3415 40.244 45.305 35.0618 41.058 31.3455C38.0831 35.6399 33.4463 38.7574 27.9067 39.6452C20.1514 40.884 12.7448 37.4154 8.53888 31.3661C2.30178 36.8167 -1.08349 45.2816 0.311648 54.0769C2.44539 67.6828 15.1453 76.9735 28.6659 74.8057C42.1864 72.6585 51.419 59.8785 49.2852 46.2727Z" fill="white"/>
<path d="M39.6424 70.2636C46.7822 64.8956 50.8035 55.8319 49.3263 46.376C48.7519 42.7835 47.4388 39.5008 45.5923 36.6516C37.0368 39.955 31.6409 48.9155 33.1386 58.3921C33.8772 63.182 36.2777 67.2906 39.6424 70.2636Z" fill="#282426"/>
<path fill-rule="evenodd" clip-rule="evenodd" d="M72.0766 52.073C73.8 62.9535 66.4139 73.1734 55.6016 74.9077C44.7893 76.6419 34.6334 69.2093 32.91 58.3288C31.1866 47.4482 38.5727 37.2077 49.385 35.4941C60.1974 33.7598 70.3532 41.1924 72.0766 52.073ZM49.3263 46.3761C50.8035 55.832 46.7822 64.8957 39.6424 70.2637C36.2776 67.2907 33.8772 63.1821 33.1386 58.3921C31.6408 48.9155 37.0367 39.9551 45.5922 36.6517C47.4388 39.5009 48.7518 42.7836 49.3263 46.3761Z" fill="#FFDB00"/>
<path d="M118.304 53.2311H122.592V43.8784C123.105 43.2797 124.254 42.3506 125.669 42.3506C127.003 42.3506 128.07 43.1351 128.07 45.1378V53.2518H132.337V44.6836C132.337 40.6782 130.019 38.5104 126.88 38.5104C124.828 38.5104 123.413 39.4395 122.592 40.1621V38.7994H118.304V53.2311ZM109.092 42.0615C110.918 42.0615 112.169 43.0526 112.477 44.6423H105.666C105.973 43.0526 107.225 42.0615 109.092 42.0615ZM109.543 53.5202C112.846 53.5202 115.001 51.9511 115.657 51.2285L113.38 48.3999C112.928 48.8335 111.718 49.969 109.461 49.969C107.409 49.969 105.994 49.04 105.666 47.3883H116.519C116.58 46.934 116.58 46.4798 116.58 46.0256C116.58 41.6899 113.462 38.5104 109.174 38.5104C104.783 38.5104 101.603 41.6899 101.603 46.0256C101.562 50.3407 104.64 53.5202 109.543 53.5202ZM81.0659 43.8784C81.4968 43.2797 82.5226 42.3506 83.8562 42.3506C85.1898 42.3506 86.1746 43.1351 86.1746 45.0965V53.2311H90.4626V43.8784C90.8935 43.2797 91.9193 42.3506 93.2529 42.3506C94.607 42.3506 95.5713 43.1351 95.5713 45.0965V53.2311H99.8593V44.6423C99.8593 40.6782 97.5409 38.4897 94.4019 38.4897C91.9809 38.4897 90.4216 39.6253 89.4163 40.6782C88.452 39.2537 86.8722 38.4897 85.0462 38.4897C83.0766 38.4897 81.784 39.4188 81.107 40.1414V38.7788H76.819V53.2311H81.107V43.8784H81.0659Z" fill="white"/>
<path d="M130.511 61.6128C132.337 61.6128 133.589 62.6038 133.897 64.1936H127.085C127.393 62.6245 128.644 61.6128 130.511 61.6128ZM130.963 73.0714C134.266 73.0714 136.42 71.5023 137.077 70.7797L134.799 67.9512C134.348 68.3848 133.138 69.5203 130.881 69.5203C128.829 69.5203 127.413 68.5912 127.085 66.9395H137.938C138 66.4853 138 66.0311 138 65.5769C138 61.2412 134.881 58.0617 130.593 58.0617C126.203 58.0617 123.023 61.2412 123.023 65.5769C122.982 69.9126 126.059 73.0714 130.963 73.0714ZM116.211 73.0714C119.966 73.0714 121.812 71.172 122.387 70.47L119.72 67.5796C119.268 68.0338 118.16 69.1693 116.273 69.1693C114.077 69.1693 112.662 67.8067 112.662 65.5769C112.662 63.3264 114.077 61.9844 116.232 61.9844C118.099 61.9844 119.33 63.2851 119.679 63.5742L122.161 60.6011C121.607 59.9405 119.535 58.0823 116.211 58.0823C111.636 58.0823 108.374 61.2618 108.374 65.5975C108.374 69.9126 111.554 73.0714 116.211 73.0714ZM102.116 72.8031H106.404V58.3507H102.116V72.8031ZM81.0659 63.4297C81.4968 62.8309 82.5226 61.9019 83.8562 61.9019C85.1898 61.9019 86.1746 62.6864 86.1746 64.6478V72.7824H90.4626V63.4297C90.8935 62.8309 91.9193 61.9019 93.2529 61.9019C94.607 61.9019 95.5713 62.6864 95.5713 64.6478V72.7824H99.8593V64.1936C99.8593 60.2295 97.5409 58.041 94.4018 58.041C91.9809 58.041 90.4216 59.1766 89.4163 60.2295C88.452 58.8049 86.8722 58.041 85.0462 58.041C83.0766 58.041 81.784 58.9701 81.107 59.6927V58.3301H76.819V72.7824H81.107V63.4297H81.0659Z" fill="white"/>
</svg>
