<svg width="77" height="79" viewBox="0 0 77 79" fill="none" xmlns="http://www.w3.org/2000/svg">
<path fill-rule="evenodd" clip-rule="evenodd" d="M46.9169 17.7017C47.8009 23.2681 46.3914 28.6672 43.4051 32.9674C42.6757 32.3338 41.9118 31.7409 41.1174 31.1916C36.8321 28.2283 31.6589 26.5318 26.207 26.5328C24.8511 26.5323 23.4775 26.6364 22.0953 26.8516C17.0545 27.6638 12.5871 29.8378 9.00358 32.9674C7.23572 30.4351 6.01734 27.4966 5.49176 24.2476C3.70001 12.8043 11.4881 2.0777 22.9314 0.262065C34.3747 -1.55357 45.1013 6.25844 46.9169 17.7017Z" fill="#221F20"/>
<path fill-rule="evenodd" clip-rule="evenodd" d="M41.8458 73.7956C38.3148 70.6931 35.8042 66.3638 35.0198 61.3487C33.4431 51.4104 39.1528 41.9739 48.1832 38.5099C49.7575 40.929 50.9615 43.6258 51.6836 46.5507C50.3661 41.1103 47.3946 36.4263 43.4052 32.9674C40.2517 37.4826 35.3543 40.7555 29.5012 41.6872C21.307 42.9773 13.4711 39.346 9.02755 32.9674C2.43392 38.701 -1.14957 47.5881 0.331609 56.8574C2.60115 71.1436 16.0273 80.9145 30.3135 78.645C34.6418 77.9574 38.5557 76.2457 41.8458 73.7956Z" fill="#221F20"/>
<path fill-rule="evenodd" clip-rule="evenodd" d="M76.4449 54.755C78.2367 66.1983 70.4485 76.9249 59.0052 78.7405C52.6172 79.7408 46.4524 77.7556 41.9366 73.8158C49.463 68.1744 53.6991 58.6808 52.1249 48.7348C51.5277 44.9601 50.1421 41.52 48.1831 38.5099C40.9813 41.2724 35.8916 47.8336 34.9253 55.4184C36.0569 46.379 43.0127 38.7945 52.4594 37.3154C63.9027 35.5236 74.6293 43.3117 76.4449 54.755Z" fill="#221F20"/>
</svg>
