<svg width="203" height="35" viewBox="0 0 203 35" fill="none" xmlns="http://www.w3.org/2000/svg">
<path d="M58.3064 34.1629H63.3632V23.0007C63.3632 19.0997 65.3936 17.4389 67.8454 17.4389C70.4504 17.4389 71.3315 19.3314 71.3315 21.2626V34.1629H76.3883V19.7177C76.3883 15.0829 74.1664 12.5337 69.1862 12.5337C67.1558 12.5337 64.9722 13.2675 63.4781 15.1215H63.4015V13.0358H58.3447V34.1629H58.3064ZM39.4967 20.8764C40.033 18.6362 41.9868 16.705 44.9366 16.705C48.3461 16.705 49.7252 19.7563 49.7252 20.8764H39.4967ZM55.0118 24.816C55.0118 17.2458 51.9471 12.5337 44.9366 12.5337C38.1175 12.5337 34.21 17.2844 34.21 23.6187C34.21 29.9143 38.1558 34.7037 44.9366 34.7037C50.6446 34.7037 53.671 31.9614 55.28 29.5281L50.9894 27.0176C50.4914 27.7128 48.9207 30.0302 44.9366 30.0302C42.2166 30.0302 39.5733 27.9831 39.4967 24.8546H55.0118V24.816ZM0 34.1629H5.0568V23.0007C5.0568 19.9881 6.7424 17.2071 9.50065 17.2071C11.9524 17.2071 13.0251 18.9066 13.0251 21.3399V34.1629H18.0819V23.0007C18.0819 19.9881 19.7675 17.2071 22.6024 17.2071C24.9775 17.2071 26.0502 18.9066 26.0502 21.3399V34.1629H31.107V19.2928C31.107 14.7352 28.3104 12.5337 23.7516 12.5337C20.9168 12.5337 18.8098 13.6538 17.2774 15.7008C16.243 13.3448 13.5997 12.5337 11.1096 12.5337C8.428 12.5337 6.58916 13.5379 5.0568 15.1215V13.0358H0V34.1629Z" fill="white"/>
<path d="M187.178 20.9173C187.715 18.6385 189.668 16.7073 192.656 16.7073C196.066 16.7073 197.445 19.7972 197.445 20.9173H187.178ZM202.77 24.8955C202.77 17.2866 199.667 12.5359 192.618 12.5359C185.761 12.5359 181.815 17.3253 181.815 23.6982C181.815 30.0324 185.761 34.8604 192.618 34.8604C198.364 34.8604 201.429 32.0795 203 29.6462L198.709 27.1357C198.211 27.8695 196.641 30.1483 192.618 30.1483C189.86 30.1483 187.217 28.1013 187.14 24.9341H202.77V24.8955ZM179.899 18.5612C178.597 15.3555 176.107 12.4973 170.973 12.4973C164.116 12.4973 160.17 17.2866 160.17 23.6595C160.17 29.9938 164.116 34.8218 170.59 34.8218C176.298 34.8218 178.712 31.4229 180.129 28.2944L175.8 25.977C174.996 27.9081 173.732 30.1097 170.667 30.1097C167.104 30.1097 165.495 26.9812 165.495 23.6595C165.495 20.3379 167.334 17.2094 170.973 17.2094C172.966 17.2094 174.766 18.5226 175.456 20.6083L179.899 18.5612ZM151.704 34.3197H156.799V13.038H151.704V34.3197ZM115.923 34.3197H121.018V23.0802C121.018 20.0675 122.742 17.248 125.501 17.248C127.952 17.248 129.063 18.9861 129.063 21.4194V34.3197H134.158V23.0802C134.158 20.0675 135.882 17.248 138.717 17.248C141.092 17.248 142.165 18.9861 142.165 21.4194V34.3197H147.26V19.3337C147.26 14.7375 144.464 12.5359 139.867 12.5359C137.032 12.5359 134.886 13.656 133.354 15.7417C132.32 13.3857 129.638 12.5359 127.148 12.5359C124.428 12.5359 122.589 13.5402 121.057 15.1623V13.0767H115.962V34.3197H115.923Z" fill="white"/>
<path d="M98.2245 14.6187C99.527 12.7261 100.14 10.3701 99.7568 7.93681C98.9524 2.91574 94.317 -0.483138 89.3368 0.289334C84.3566 1.10043 80.9854 5.77389 81.7516 10.795C81.9814 12.224 82.5178 13.4986 83.2839 14.6187C84.8546 13.2669 86.7701 12.3013 88.992 11.9537C92.4398 11.3743 95.7727 12.4558 98.2245 14.6187Z" fill="#FFDB00"/>
<path d="M102.017 21.4968C101.596 18.7159 100.179 16.3213 98.2248 14.6218C96.8457 16.5916 94.7387 18.0207 92.172 18.4456C88.6093 19.0249 85.1998 17.4027 83.2843 14.6218C80.4111 17.1324 78.8788 21.0333 79.4917 25.0888C80.4877 31.3459 86.3107 35.6331 92.5168 34.6289C98.7612 33.6633 102.975 27.7539 102.017 21.4968Z" fill="white"/>
<path d="M105.005 34.6619C109.985 33.8508 113.356 29.1774 112.59 24.1563C111.785 19.1352 107.15 15.7363 102.17 16.5088C97.1896 17.3199 93.8184 21.9934 94.5846 27.0144C95.3508 32.0355 100.024 35.473 105.005 34.6619Z" fill="#FFDB00"/>
<path d="M97.5727 32.542C100.867 30.0701 102.706 25.8988 102.017 21.5343C101.748 19.8735 101.135 18.3672 100.293 17.054C96.3468 18.5603 93.895 22.693 94.5846 27.0575C94.9293 29.259 96.0403 31.1902 97.5727 32.542Z" fill="#221F20"/>
</svg>
