<svg width="138" height="76" viewBox="0 0 138 76" fill="none" xmlns="http://www.w3.org/2000/svg">
<path d="M40.8502 31.365C43.6815 27.277 45.0151 22.1361 44.1739 16.83C42.471 5.9495 32.2947 -1.48313 21.4824 0.251149C10.67 1.96478 3.28398 12.1847 5.00739 23.0652C5.49979 26.1621 6.66925 28.97 8.33111 31.365C11.7164 28.3919 15.9428 26.3067 20.7232 25.5427C28.2324 24.3453 35.5159 26.6989 40.8502 31.365Z" fill="#FFDB00"/>
<path d="M49.2852 46.2728C48.3415 40.2441 45.305 35.0619 41.058 31.3456C38.0831 35.64 33.4463 38.7576 27.9067 39.6454C20.1514 40.8841 12.7448 37.4156 8.53888 31.3662C2.30178 36.8168 -1.08349 45.2818 0.311648 54.077C2.44539 67.6829 15.1453 76.9737 28.6659 74.8058C42.1864 72.6586 51.419 59.8786 49.2852 46.2728Z" fill="white"/>
<path d="M39.6425 70.2636C46.7824 64.8956 50.8037 55.8319 49.3265 46.376C48.752 42.7835 47.4389 39.5008 45.5924 36.6516C37.0369 39.955 31.641 48.9155 33.1387 58.3921C33.8773 63.182 36.2778 67.2906 39.6425 70.2636Z" fill="#282426"/>
<path fill-rule="evenodd" clip-rule="evenodd" d="M72.0768 52.0728C73.8002 62.9534 66.4141 73.1733 55.6018 74.9075C44.7894 76.6418 34.6336 69.2092 32.9102 58.3286C31.1868 47.4481 38.5729 37.2076 49.3852 35.4939C60.1975 33.7597 70.3533 41.1923 72.0768 52.0728ZM49.3265 46.3759C50.8037 55.8319 46.7824 64.8956 39.6426 70.2636C36.2778 67.2905 33.8773 63.1819 33.1387 58.392C31.641 48.9154 37.0369 39.955 45.5924 36.6516C47.4389 39.5008 48.752 42.7835 49.3265 46.3759Z" fill="#FFDB00"/>
<path d="M118.304 53.231H122.592V43.8783C123.105 43.2795 124.254 42.3505 125.669 42.3505C127.003 42.3505 128.07 43.135 128.07 45.1377V53.2517H132.337V44.6835C132.337 40.6781 130.019 38.5103 126.88 38.5103C124.828 38.5103 123.412 39.4394 122.592 40.162V38.7993H118.304V53.231ZM109.092 42.0614C110.918 42.0614 112.169 43.0524 112.477 44.6422H105.665C105.973 43.0524 107.225 42.0614 109.092 42.0614ZM109.543 53.5201C112.846 53.5201 115.001 51.9509 115.657 51.2283L113.38 48.3998C112.928 48.8334 111.718 49.9689 109.461 49.9689C107.409 49.9689 105.994 49.0398 105.665 47.3881H116.519C116.58 46.9339 116.58 46.4797 116.58 46.0255C116.58 41.6898 113.462 38.5103 109.174 38.5103C104.783 38.5103 101.603 41.6898 101.603 46.0255C101.562 50.3405 104.64 53.5201 109.543 53.5201ZM81.0658 43.8783C81.4967 43.2795 82.5225 42.3505 83.8561 42.3505C85.1897 42.3505 86.1745 43.135 86.1745 45.0964V53.231H90.4625V43.8783C90.8934 43.2795 91.9192 42.3505 93.2528 42.3505C94.6069 42.3505 95.5712 43.135 95.5712 45.0964V53.231H99.8592V44.6422C99.8592 40.6781 97.5408 38.4896 94.4017 38.4896C91.9807 38.4896 90.4215 39.6252 89.4161 40.6781C88.4519 39.2535 86.8721 38.4896 85.0461 38.4896C83.0765 38.4896 81.7839 39.4187 81.1069 40.1413V38.7787H76.8188V53.231H81.1069V43.8783H81.0658Z" fill="white"/>
<path d="M130.511 61.6129C132.337 61.6129 133.589 62.6039 133.897 64.1937H127.085C127.393 62.6246 128.644 61.6129 130.511 61.6129ZM130.963 73.0716C134.266 73.0716 136.42 71.5025 137.077 70.7798L134.799 67.9513C134.348 68.3849 133.137 69.5204 130.881 69.5204C128.829 69.5204 127.413 68.5913 127.085 66.9396H137.938C138 66.4854 138 66.0312 138 65.577C138 61.2413 134.881 58.0618 130.593 58.0618C126.203 58.0618 123.023 61.2413 123.023 65.577C122.982 69.9127 126.059 73.0716 130.963 73.0716ZM116.211 73.0716C119.966 73.0716 121.812 71.1721 122.387 70.4701L119.719 67.5797C119.268 68.0339 118.16 69.1694 116.273 69.1694C114.077 69.1694 112.662 67.8068 112.662 65.577C112.662 63.3266 114.077 61.9846 116.232 61.9846C118.099 61.9846 119.33 63.2853 119.678 63.5743L122.161 60.6013C121.607 59.9406 119.535 58.0824 116.211 58.0824C111.636 58.0824 108.374 61.2619 108.374 65.5976C108.374 69.9127 111.554 73.0716 116.211 73.0716ZM102.116 72.8032H106.404V58.3508H102.116V72.8032ZM81.0658 63.4298C81.4967 62.8311 82.5225 61.902 83.8561 61.902C85.1897 61.902 86.1745 62.6865 86.1745 64.6479V72.7825H90.4625V63.4298C90.8934 62.8311 91.9192 61.902 93.2528 61.902C94.6069 61.902 95.5712 62.6865 95.5712 64.6479V72.7825H99.8592V64.1937C99.8592 60.2296 97.5408 58.0411 94.4017 58.0411C91.9807 58.0411 90.4215 59.1767 89.4161 60.2296C88.4519 58.805 86.8721 58.0411 85.0461 58.0411C83.0765 58.0411 81.7839 58.9702 81.1069 59.6928V58.3302H76.8188V72.7825H81.1069V63.4298H81.0658Z" fill="white"/>
</svg>
