<svg width="240" height="42" viewBox="0 0 240 42" fill="none" xmlns="http://www.w3.org/2000/svg">
<path d="M68.9337 40.1963H74.9122V26.9995C74.9122 22.3875 77.3126 20.424 80.2113 20.424C83.2911 20.424 84.3328 22.6615 84.3328 24.9447V40.1963H90.3113V23.1181C90.3113 17.6385 87.6844 14.6248 81.7965 14.6248C79.396 14.6248 76.8144 15.4924 75.048 17.6842H74.9575V15.2184H68.979V40.1963H68.9337ZM46.6956 24.4881C47.3296 21.8396 49.6395 19.5564 53.127 19.5564C57.1579 19.5564 58.7884 23.1638 58.7884 24.4881H46.6956ZM65.0386 29.1457C65.0386 20.1957 61.4153 14.6248 53.127 14.6248C45.0651 14.6248 40.4453 20.2414 40.4453 27.7302C40.4453 35.1733 45.1104 40.8356 53.127 40.8356C59.8754 40.8356 63.4534 37.5934 65.3557 34.7167L60.283 31.7485C59.6942 32.5705 57.8373 35.3103 53.127 35.3103C49.9113 35.3103 46.7861 32.8901 46.6956 29.1914H65.0386V29.1457ZM0 40.1963H5.97848V26.9995C5.97848 23.4378 7.97131 20.15 11.2323 20.15C14.131 20.15 15.3991 22.1592 15.3991 25.036V40.1963H21.3776V26.9995C21.3776 23.4378 23.3704 20.15 26.722 20.15C29.5301 20.15 30.7982 22.1592 30.7982 25.036V40.1963H36.7767V22.6159C36.7767 17.2276 33.4704 14.6248 28.0807 14.6248C24.7292 14.6248 22.2381 15.949 20.4265 18.3692C19.2036 15.5837 16.0785 14.6248 13.1345 14.6248C9.96414 14.6248 7.79014 15.812 5.97848 17.6842V15.2184H0V40.1963Z" fill="#221F20"/>
<path d="M221.295 24.5364C221.929 21.8423 224.239 19.5591 227.771 19.5591C231.802 19.5591 233.433 23.2122 233.433 24.5364H221.295ZM239.728 29.2397C239.728 20.244 236.06 14.6275 227.726 14.6275C219.619 14.6275 214.954 20.2897 214.954 27.8242C214.954 35.313 219.619 41.0209 227.726 41.0209C234.52 41.0209 238.143 37.7331 240 34.8563L234.927 31.8882C234.339 32.7558 232.482 35.45 227.726 35.45C224.465 35.45 221.34 33.0298 221.249 29.2854H239.728V29.2397ZM212.689 21.7509C211.149 17.9609 208.205 14.5818 202.136 14.5818C194.029 14.5818 189.364 20.2441 189.364 27.7785C189.364 35.2673 194.029 40.9752 201.683 40.9752C208.432 40.9752 211.285 36.9569 212.961 33.2581L207.843 30.5183C206.892 32.8015 205.397 35.4043 201.774 35.4043C197.562 35.4043 195.66 31.7056 195.66 27.7785C195.66 23.8515 197.834 20.1527 202.136 20.1527C204.491 20.1527 206.62 21.7053 207.435 24.1711L212.689 21.7509ZM179.355 40.3816H185.378V15.2211H179.355V40.3816ZM137.052 40.3816H143.076V27.0936C143.076 23.5318 145.114 20.1984 148.375 20.1984C151.274 20.1984 152.587 22.2532 152.587 25.13V40.3816H158.611V27.0936C158.611 23.5318 160.649 20.1984 164.001 20.1984C166.809 20.1984 168.077 22.2532 168.077 25.13V40.3816H174.101V22.6642C174.101 17.2303 170.795 14.6275 165.36 14.6275C162.008 14.6275 159.472 15.9517 157.66 18.4175C156.437 15.632 153.267 14.6275 150.323 14.6275C147.107 14.6275 144.933 15.8147 143.121 17.7326V15.2667H137.098V40.3816H137.052Z" fill="#221F20"/>
<path d="M116.128 17.0898C117.667 14.8522 118.392 12.0668 117.939 9.18998C116.988 3.25374 111.508 -0.764638 105.62 0.14863C99.732 1.10756 95.7464 6.63283 96.6522 12.5691C96.924 14.2586 97.558 15.7655 98.4639 17.0898C100.321 15.4915 102.585 14.3499 105.212 13.939C109.289 13.254 113.229 14.5326 116.128 17.0898Z" fill="#FFDB00"/>
<path d="M120.612 25.2216C120.113 21.9338 118.438 19.1027 116.128 17.0935C114.497 19.4223 112.006 21.1119 108.972 21.6142C104.76 22.2991 100.729 20.3813 98.4641 17.0935C95.0672 20.0616 93.2555 24.6736 93.9802 29.4683C95.1578 36.8658 102.042 41.9344 109.379 40.7471C116.762 39.6056 121.744 32.6191 120.612 25.2216Z" fill="#221F20"/>
<path d="M124.143 40.7862C130.031 39.8273 134.017 34.302 133.111 28.3658C132.16 22.4295 126.68 18.4111 120.792 19.3244C114.904 20.2833 110.918 25.8086 111.824 31.7449C112.73 37.6811 118.255 41.7451 124.143 40.7862Z" fill="#FFDB00"/>
<path d="M115.357 38.28C119.252 35.3576 121.426 30.4259 120.611 25.2659C120.294 23.3024 119.569 21.5215 118.573 19.969C113.908 21.7499 111.009 26.6358 111.824 31.7958C112.232 34.3986 113.545 36.6818 115.357 38.28Z" fill="white"/>
</svg>
