<svg width="164" height="269" viewBox="0 0 164 269" fill="none" xmlns="http://www.w3.org/2000/svg">
<g opacity="0.4">
<path d="M163.164 138.631C163.164 117.451 147.712 99.8002 127.315 95.9049V134.736C127.315 143.622 120.022 150.804 110.998 150.804C101.974 150.804 94.6803 143.622 94.6803 134.736V95.1746H0.607574V134.736C0.607574 143.622 -6.68584 150.804 -15.7099 150.804C-24.734 150.804 -32.151 143.622 -32.151 134.736V95.9049C-52.5478 99.8002 -68 117.451 -68 138.631V162.976C-68 163.707 -67.8764 164.559 -67.8764 165.289H-68C-67.7528 227.978 -16.0808 269 47.5821 269C111.245 269 162.917 227.978 163.164 165.289H163.041C163.041 164.559 163.164 163.707 163.164 162.976V138.631Z" fill="#FFDB00"/>
<path d="M0.608982 95.1742V78.7411C0.608982 53.3003 21.6239 32.6067 47.8308 32.6067C73.6668 32.6067 94.6817 53.3003 94.6817 78.7411V95.1742H119.034C121.878 95.1742 124.597 95.4176 127.317 95.9045V78.7411C127.317 35.6499 91.5913 0.470947 47.4599 0.470947C3.5758 0.470947 -32.1496 35.6499 -32.1496 78.7411V95.9045C-29.43 95.4176 -26.7104 95.1742 -23.8672 95.1742H0.608982Z" fill="#FF4263"/>
<path d="M-15.8321 150.804C-6.80806 150.804 0.485359 143.622 0.485359 134.736V95.1746H-23.8672C-26.7104 95.1746 -29.43 95.418 -32.1496 95.9049V134.736C-32.1496 143.622 -24.7326 150.804 -15.8321 150.804Z" fill="white"/>
<path d="M94.6819 95.1746V134.736C94.6819 143.622 101.975 150.804 110.999 150.804C120.023 150.804 127.317 143.622 127.317 134.736V95.9049C124.597 95.418 121.878 95.1746 119.034 95.1746H94.6819Z" fill="white"/>
<path d="M58.0873 216.658V192.069C58.0873 186.47 53.3899 181.722 47.5799 181.722C41.8935 181.722 37.0724 186.348 37.0724 192.069V216.658C37.0724 222.257 41.7698 227.005 47.5799 227.005C53.3899 227.005 58.0873 222.379 58.0873 216.658Z" fill="#4C1BD4"/>
<path d="M47.5817 198.641C60.2803 198.641 70.5745 188.505 70.5745 176C70.5745 163.496 60.2803 153.359 47.5817 153.359C34.8831 153.359 24.5889 163.496 24.5889 176C24.5889 188.505 34.8831 198.641 47.5817 198.641Z" fill="#4C1BD4"/>
</g>
</svg>
