<svg width="168" height="195" viewBox="0 0 168 195" fill="none" xmlns="http://www.w3.org/2000/svg">
<path d="M167.164 99.9091C167.164 84.5926 155.99 71.829 141.24 69.0122V97.0923C141.24 103.518 135.966 108.712 129.441 108.712C122.915 108.712 117.641 103.518 117.641 97.0923V68.484H49.6129V97.0923C49.6129 103.518 44.3388 108.712 37.8131 108.712C31.2874 108.712 25.9239 103.518 25.9239 97.0923V69.0122C11.1741 71.829 0 84.5926 0 99.9091V117.514C0 118.042 0 118.658 0 119.187C0.178785 164.52 37.5449 194.184 83.5821 194.184C129.619 194.184 166.985 164.52 167.164 119.187H167.075C167.075 118.658 167.164 118.042 167.164 117.514V99.9091Z" fill="#FFDB00"/>
<path d="M49.6141 68.4837V56.6003C49.6141 38.203 64.8109 23.2387 83.7621 23.2387C102.445 23.2387 117.642 38.203 117.642 56.6003V68.4837H135.252C137.308 68.4837 139.275 68.6598 141.242 69.0119V56.6003C141.242 25.4393 115.407 0 83.4939 0C51.7595 0 25.925 25.4393 25.925 56.6003V69.0119C27.8917 68.6598 29.8583 68.4837 31.9144 68.4837H49.6141Z" fill="#FF4263"/>
<path d="M37.7246 108.712C44.2503 108.712 49.5245 103.518 49.5245 97.0923V68.484H31.9141C29.8581 68.484 27.8914 68.6601 25.9248 69.0122V97.0923C25.9248 103.518 31.2884 108.712 37.7246 108.712Z" fill="white"/>
<path d="M117.642 68.484V97.0923C117.642 103.518 122.916 108.712 129.441 108.712C135.967 108.712 141.241 103.518 141.241 97.0923V69.0122C139.275 68.6601 137.308 68.484 135.252 68.484H117.642Z" fill="white"/>
<path d="M91.1787 156.334V138.552C91.1787 134.503 87.7818 131.07 83.5803 131.07C79.4682 131.07 75.9819 134.415 75.9819 138.552V156.334C75.9819 160.383 79.3789 163.816 83.5803 163.816C87.7818 163.816 91.1787 160.471 91.1787 156.334Z" fill="#4C1BD4"/>
<path d="M83.5819 143.305C92.7647 143.305 100.209 135.975 100.209 126.932C100.209 117.89 92.7647 110.56 83.5819 110.56C74.399 110.56 66.9548 117.89 66.9548 126.932C66.9548 135.975 74.399 143.305 83.5819 143.305Z" fill="#4C1BD4"/>
</svg>
