<svg width="212" height="244" viewBox="0 0 212 244" fill="none" xmlns="http://www.w3.org/2000/svg">
<path d="M147.509 64.4001L24.6703 64.0179L24.0927 242.308L147.509 243.264V64.4001Z" fill="#4C1BD4"/>
<path d="M212 103.382C212 127.077 192.746 146.187 174.263 146.187H107.453H66.635H-8.26173C-24.6273 146.187 -40.8004 131.664 -40.9929 113.128C-41.378 94.4003 -25.9751 78.9217 -7.10651 78.9217C-6.33637 78.9217 -5.56622 78.9217 -4.98861 78.9217C-4.411 53.1241 16.9605 32.4859 43.1455 32.4859C49.6917 32.4859 55.8529 33.8236 61.4365 36.1167H61.629C69.3305 14.9053 89.7393 0 113.421 0C143.842 0 168.487 24.46 168.487 54.6528C168.487 56.7549 168.294 58.6658 168.102 60.5767C168.294 60.5767 168.679 60.5767 168.872 60.5767C192.746 60.5767 212 79.6861 212 103.382Z" fill="#FFDB00"/>
<path d="M132.87 79.6843H38.1418C30.6329 79.6843 24.4717 85.7993 24.4717 93.2519V146.185H147.503V94.2074C147.503 86.1815 140.956 79.6843 132.87 79.6843Z" fill="#FF4263"/>
<path d="M51.816 181.158H116.316C120.937 181.158 124.787 177.336 124.787 172.75C124.787 168.163 120.937 164.341 116.316 164.341H51.816C47.1951 164.341 43.3444 168.163 43.3444 172.75C43.3444 177.527 47.1951 181.158 51.816 181.158Z" fill="white"/>
<path d="M51.816 213.837H116.316C120.937 213.837 124.787 210.015 124.787 205.429C124.787 200.842 120.937 197.02 116.316 197.02H51.816C47.1951 197.02 43.3444 200.842 43.3444 205.429C43.3444 210.206 47.1951 213.837 51.816 213.837Z" fill="white"/>
<path d="M116.309 107.393H77.2236C72.6027 107.393 68.752 111.215 68.752 115.801C68.752 120.388 72.6027 124.21 77.2236 124.21H116.309C120.929 124.21 124.78 120.388 124.78 115.801C124.78 111.215 120.929 107.393 116.309 107.393Z" fill="#221F20"/>
<path d="M52.9626 124.21C57.6414 124.21 61.4342 120.445 61.4342 115.801C61.4342 111.158 57.6414 107.393 52.9626 107.393C48.2839 107.393 44.491 111.158 44.491 115.801C44.491 120.445 48.2839 124.21 52.9626 124.21Z" fill="#221F20"/>
</svg>
