<svg width="350" height="315" viewBox="0 0 350 315" fill="none" xmlns="http://www.w3.org/2000/svg">
<path d="M141.299 300.875C141.299 307.523 146.067 313.099 152.568 314.386C153.435 314.601 154.302 314.601 155.169 314.601H162.754H192.444H200.03C200.896 314.601 201.763 314.601 202.63 314.386C209.132 313.099 213.899 307.523 213.899 300.875V276.427C213.899 276.213 213.899 275.998 213.899 275.784C213.899 255.839 197.646 242.972 177.491 242.972C157.336 242.972 141.082 256.054 141.082 275.784C141.082 275.998 141.082 276.213 141.082 276.427V300.875H141.299Z" fill="#FF4263"/>
<path d="M236.44 300.875C236.44 307.523 241.208 313.099 247.71 314.386C248.577 314.601 249.443 314.601 250.31 314.601H257.895H287.586H295.171C296.038 314.601 296.905 314.601 297.771 314.386C304.273 313.099 309.041 307.523 309.041 300.875V276.427C309.041 276.213 309.041 275.998 309.041 275.784C309.041 255.839 292.787 242.972 272.632 242.972C252.477 242.972 236.224 256.054 236.224 275.784C236.224 275.998 236.224 276.213 236.224 276.427V300.875H236.44Z" fill="#FF4263"/>
<path d="M177.708 232.266C193.745 232.266 206.748 219.399 206.748 203.744H148.451C148.668 219.613 161.671 232.266 177.708 232.266Z" fill="#4C1BD4"/>
<path d="M272.849 232.266C288.886 232.266 301.889 219.399 301.889 203.744H243.593C244.026 219.613 257.029 232.266 272.849 232.266Z" fill="#4C1BD4"/>
<path d="M319.659 0H74.3352C57.8647 0 44.4282 13.2964 44.4282 29.5951V45.036C63.4994 45.2505 79.103 60.6914 79.103 79.7781C79.103 98.8648 63.7161 114.306 44.4282 114.52V132.749C47.0288 132.749 49.8462 132.964 52.2301 133.392H122.23C132.632 133.392 141.084 141.756 141.084 152.05C141.084 162.344 132.632 170.708 122.23 170.708H87.555C87.555 171.137 87.555 171.566 87.555 171.995C87.555 172.209 87.555 172.638 87.555 172.853V203.734H148.453V203.52C148.453 187.65 161.456 174.568 177.71 174.568C193.747 174.568 206.966 187.436 206.966 203.52V203.734H244.025V203.52C244.025 187.65 257.028 174.568 273.282 174.568C289.319 174.568 302.539 187.436 302.539 203.52V203.734H320.093C336.563 203.734 350 190.438 350 174.139V29.5951C349.566 13.2964 336.13 0 319.659 0Z" fill="#FFDB00"/>
<path d="M43.7747 44.8208C24.4869 44.8208 8.6665 60.4762 8.6665 79.5629C8.6665 98.6496 24.2702 114.305 43.7747 114.305C43.9914 114.305 43.9914 114.305 44.2082 114.305V45.0353C43.9914 45.0353 43.9914 44.8208 43.7747 44.8208Z" fill="#4C1BD4"/>
<path d="M44.2104 174.154V132.334C43.9937 132.334 43.9937 132.334 43.7769 132.334C19.7213 132.334 0 147.99 0 171.795C0 172.009 0 172.438 0 172.652V294.464C0 302.614 5.85137 309.262 13.6532 310.763C14.7368 310.977 15.8204 310.977 16.6872 310.977H26.0061H61.5478H70.8666C71.9502 310.977 73.0338 310.763 73.9007 310.763C81.7025 309.262 87.5539 302.614 87.5539 294.464V203.749H74.1174C57.6469 203.749 44.2104 190.452 44.2104 174.154Z" fill="#FF4263"/>
<path d="M87.5553 171.795C87.5553 171.366 87.5553 170.937 87.5553 170.508H122.23C132.633 170.508 141.084 162.144 141.084 151.85C141.084 141.556 132.633 132.978 122.23 132.978H52.2303C49.6297 132.549 47.0291 132.334 44.4285 132.334V173.939C44.4285 190.238 57.865 203.534 74.3355 203.534H87.772V172.867C87.5553 172.438 87.5553 172.224 87.5553 171.795Z" fill="white"/>
</svg>
