<svg width="40" height="40" viewBox="0 0 40 40" fill="none" xmlns="http://www.w3.org/2000/svg">
<path d="M39.5 19.9973C39.5 30.7653 30.7696 39.4946 20 39.4946C9.23038 39.4946 0.5 30.7653 0.5 19.9973C0.5 9.22931 9.23038 0.5 20 0.5C30.7696 0.5 39.5 9.22931 39.5 19.9973Z" stroke="white" stroke-opacity="0.12"/>
<path fill-rule="evenodd" clip-rule="evenodd" d="M30 19.9985C30 25.5206 25.5228 29.9971 20 29.9971C14.4772 29.9971 10 25.5206 10 19.9985C10 14.4765 14.4772 10 20 10C25.5228 10 30 14.4765 30 19.9985ZM25.0313 18.4122C25.0313 21.5966 22.6063 25.271 18.1713 25.271C16.8113 25.271 15.5413 24.8711 14.4863 24.1812C14.6763 24.2062 14.8663 24.2162 15.0613 24.2162C16.1913 24.2162 17.2313 23.8312 18.0563 23.1864C17.0013 23.1664 16.1113 22.4715 15.8063 21.5117C15.9563 21.5416 16.1063 21.5566 16.2613 21.5566C16.4813 21.5566 16.6963 21.5266 16.8963 21.4717C15.7913 21.2467 14.9613 20.2769 14.9613 19.1071V19.0771C15.2863 19.257 15.6563 19.367 16.0513 19.377C15.4013 18.9471 14.9763 18.2072 14.9763 17.3724C14.9763 16.9324 15.0963 16.5175 15.3013 16.1626C16.4913 17.6223 18.2663 18.5822 20.2713 18.6821C20.2263 18.5072 20.2063 18.3222 20.2063 18.1322C20.2063 16.8025 21.2863 15.7227 22.6163 15.7227C23.3113 15.7227 23.9363 16.0126 24.3763 16.4825C24.9263 16.3725 25.4413 16.1726 25.9063 15.8976C25.7263 16.4625 25.3463 16.9324 24.8463 17.2324C25.3363 17.1724 25.8013 17.0424 26.2313 16.8525C25.9063 17.3374 25.4963 17.7623 25.0263 18.1022C25.0313 18.2022 25.0313 18.3072 25.0313 18.4122Z" fill="white"/>
</svg>
