<svg width="40" height="40" viewBox="0 0 40 40" fill="none" xmlns="http://www.w3.org/2000/svg">
<path d="M39.5 19.9973C39.5 30.7653 30.7696 39.4946 20 39.4946C9.23038 39.4946 0.5 30.7653 0.5 19.9973C0.5 9.22931 9.23038 0.5 20 0.5C30.7696 0.5 39.5 9.22931 39.5 19.9973Z" stroke="white" stroke-opacity="0.12"/>
<path d="M28.6216 15.1861C28.417 14.3282 27.8034 13.6508 27.0261 13.4138C25.625 12.9961 20 12.9961 20 12.9961C20 12.9961 14.375 12.9961 12.9636 13.4138C12.1864 13.6508 11.583 14.3169 11.3682 15.1861C11 16.744 11 19.9951 11 19.9951C11 19.9951 11 23.2463 11.3784 24.8041C11.583 25.6621 12.1966 26.3394 12.9739 26.5765C14.375 26.9941 20 26.9941 20 26.9941C20 26.9941 25.625 26.9941 27.0364 26.5765C27.8136 26.3394 28.417 25.6734 28.6318 24.8041C29 23.2463 29 19.9951 29 19.9951C29 19.9951 29 16.744 28.6216 15.1861ZM18.1591 22.9528V17.0375L22.8636 19.9951L18.1591 22.9528Z" fill="white"/>
</svg>
